<svg xmlns="http://www.w3.org/2000/svg" version="1.1" xmlns:xlink="http://www.w3.org/1999/xlink" xmlns:svgjs="http://svgjs.dev/svgjs" width="512" height="512"><svg xmlns="http://www.w3.org/2000/svg" viewBox="0 0 512 512"><rect width="512" height="512" rx="50" ry="50" fill="#505bd1"></rect><path d="M51.375 0L51.375 0Q36.168 0 28.565-4.110Q20.961-8.220 18.495-13.563Q16.029-18.906 16.029-23.016Q16.029-27.126 16.029-27.126L16.029-27.126L11.097-205.500Q11.097-205.500 10.686-209.610Q10.275-213.720 12.330-219.269Q14.385-224.817 20.961-229.133Q27.537-233.448 41.511-233.448L41.511-233.448Q60.006-233.859 69.459-228.311Q78.912-222.762 81.995-217.214Q85.077-211.665 85.077-211.665L85.077-211.665L132.342-125.766Q132.342-125.766 135.836-133.370Q139.329-140.973 144.467-152.481Q149.604-163.989 154.947-175.908Q160.290-187.827 164.400-196.664Q168.510-205.500 169.743-207.966L169.743-207.966Q171.798-212.076 177.141-219.269Q182.484-226.461 192.554-232.626Q202.623-238.791 219.063-239.202L219.063-239.202Q231.393-239.613 237.969-236.531Q244.545-233.448 247.217-229.338Q249.888-225.228 250.299-221.940Q250.710-218.652 250.710-218.652L250.710-218.652Q250.710-218.652 250.710-208.172Q250.710-197.691 250.916-180.429Q251.121-163.167 251.121-142.617Q251.121-122.067 251.121-101.312Q251.121-80.556 251.327-63.294Q251.532-46.032 251.532-35.346Q251.532-24.660 251.532-24.249L251.532-24.249Q251.532-23.838 251.327-20.139Q251.121-16.440 248.244-11.714Q245.367-6.987 238.175-3.494Q230.982 0 217.008 0L217.008 0Q203.034 0 195.842-3.083Q188.649-6.165 185.772-10.070Q182.895-13.974 182.484-16.851Q182.073-19.728 182.073-19.728L182.073-19.728Q182.073-19.728 182.073-26.921Q182.073-34.113 182.279-45.005Q182.484-55.896 182.690-66.788Q182.895-77.679 182.895-85.077Q182.895-92.475 182.895-92.475L182.895-92.475L186.183-151.248L164.811-105.627Q164.811-105.627 162.550-101.106Q160.290-96.585 154.125-92.064Q147.960-87.543 135.630-87.132L135.630-87.132Q123.711-86.721 116.930-90.626Q110.148-94.530 107.477-98.435Q104.805-102.339 104.805-102.339L104.805-102.339L78.090-151.248Q78.090-151.248 78.707-141.590Q79.323-131.931 80.145-116.519Q80.967-101.106 81.789-84.050Q82.611-66.993 83.228-51.992Q83.844-36.990 84.255-27.948L84.255-27.948Q84.666-16.851 79.734-10.892Q74.802-4.932 68.226-2.671Q61.650-0.411 56.513-0.206Q51.375 0 51.375 0ZM319.347-21.783L270.849-209.610Q270.849-209.610 270.849-213.720Q270.849-217.830 272.904-223.584Q274.959-229.338 281.535-234.065Q288.111-238.791 301.263-239.613L301.263-239.613Q314.415-240.435 322.019-237.558Q329.622-234.681 333.115-230.366Q336.609-226.050 337.637-222.557Q338.664-219.063 338.664-219.063L338.664-219.063L357.159-80.145L371.955-190.293Q371.955-190.293 372.777-194.609Q373.599-198.924 377.093-204.062Q380.586-209.199 387.573-212.693Q394.560-216.186 406.890-214.131L406.890-214.131Q419.220-212.487 424.563-207.350Q429.906-202.212 431.139-196.664Q432.372-191.115 431.550-187.005Q430.728-182.895 430.728-182.895L430.728-182.895Q430.728-182.895 428.262-171.593Q425.796-160.290 421.892-142.617Q417.987-124.944 413.466-105.011Q408.945-85.077 404.835-67.199Q400.725-49.320 398.259-37.812Q395.793-26.304 395.382-25.893L395.382-25.893Q394.971-25.482 393.533-21.578Q392.094-17.673 388.395-12.536Q384.696-7.398 377.093-3.699Q369.489 0 357.159 0L357.159 0Q340.719 0 332.499-5.549Q324.279-11.097 321.813-16.440Q319.347-21.783 319.347-21.783L319.347-21.783Z" fill="#ffC600" transform="translate(34.75185489654541, 375.89783477783203)"></path></svg><style>@media (prefers-color-scheme: light) { :root { filter: none; } }
@media (prefers-color-scheme: dark) { :root { filter: none; } }
</style></svg>